<svg width="189" height="204" viewBox="0 0 189 204" fill="none" xmlns="http://www.w3.org/2000/svg">
<path d="M182.69 44.3001H141.667V47.8001C141.667 20.8902 121.391 0.600098 94.5004 0.600098C67.6095 0.600098 47.3337 20.8902 47.3337 47.8001V44.3001H6.29285L0.66233 185.192C0.473663 189.983 2.266 194.709 5.57946 198.16C8.89292 201.612 13.5506 203.6 18.338 203.6H171.146C180.898 203.6 188.834 195.659 188.828 185.646L182.69 44.3001ZM59.1254 47.8001C59.1254 27.6221 74.3367 12.4001 94.5004 12.4001C114.664 12.4001 129.875 27.6221 129.875 47.8001V44.3001H59.1254V47.8001ZM171.146 191.8H18.338C16.7403 191.8 15.1897 191.139 14.0871 189.989C12.9787 188.838 12.3833 187.257 12.4481 185.664L17.6246 56.1001H47.3337V79.7001H59.1254V56.1001H129.875V79.7001H141.667V56.1001H171.394L177.042 185.9C177.042 189.151 174.395 191.8 171.146 191.8Z" fill="black"/>
</svg>
