<svg width="361" height="339" viewBox="0 0 361 339" fill="none" xmlns="http://www.w3.org/2000/svg">
<path d="M44.0536 154.919C44.0536 157.35 42.0836 159.321 39.6546 159.321C37.2256 159.321 35.2556 157.349 35.2556 154.919C35.2556 152.49 37.2256 150.52 39.6546 150.52C42.0836 150.519 44.0536 152.49 44.0536 154.919ZM103.048 150.098C77.1036 147.272 64.0686 157.551 31.8656 181.455C4.2936 201.922 -0.901403 185.836 0.117597 178.841C1.6166 168.559 25.3396 120.268 48.1966 90.38C76.4696 97.72 98.0666 121.107 103.048 150.098ZM47.1316 154.919C47.1316 150.788 43.7826 147.441 39.6536 147.441C35.5246 147.441 32.1756 150.788 32.1756 154.919C32.1756 159.05 35.5246 162.4 39.6536 162.4C43.7836 162.4 47.1316 159.05 47.1316 154.919ZM32.0996 203.343L31.8656 217.384L52.2786 240.071L42.4606 247.424L75.7666 274.916L64.0076 283.04L106.64 302.979L95.8146 312.726L144.106 320.804L136.58 331.111L185.338 326.58L181.341 338.305L235.257 320.152L232.497 333.509L280.574 299.164L282.053 312.726L316.14 264.15L323.618 278.356L338.805 219.466L349.196 227.999L347.056 170.115L360.87 175.245L339.788 124.041L353.192 124.089L319.496 81.958L334.808 80.592L287.782 47.761L302.037 39.362L247.22 24.68L256.477 12.985L206.852 13.337L207.452 0L168.915 14.084L167.318 1.395L137.334 22.824L130.888 11.972L108.298 38.476L101.277 28.904L82.3536 59.198L72.7576 50.454L56.0036 80.592C87.5136 90.789 110.984 118.543 115.131 152.139C115.535 152.226 92.7606 183.396 126.086 209.989C125.51 207.004 119.973 156.087 173.582 152.379C200.25 150.535 221.982 174.045 221.982 200.778C221.982 208.962 219.932 216.661 216.346 223.418C200.419 253.029 151.488 254.173 135.917 254.014C90.7626 253.555 31.8646 202.493 31.8646 202.493L32.0996 203.343Z" fill="black"/>
</svg>
